# Blender 4.1.1
# www.blender.org
o Cube
v -0.400000 -0.373883 0.880790
v -0.400000 0.373883 0.880790
v -0.400000 -0.373883 -0.880790
v -0.400000 0.373883 -0.880790
v 0.400000 -0.373883 0.880790
v 0.400000 0.373883 0.880790
v 0.400000 -0.373883 -0.880790
v 0.400000 0.373883 -0.880790
vn -1.0000 -0.0000 -0.0000
vn -0.0000 -0.0000 -1.0000
vn 1.0000 -0.0000 -0.0000
vn -0.0000 -0.0000 1.0000
vn -0.0000 -1.0000 -0.0000
vn -0.0000 1.0000 -0.0000
vt 0.546466 0.148030
vt 0.473220 0.104431
vt 0.546466 0.104431
vt 0.524503 0.698266
vt 0.418573 0.592337
vt 0.524503 0.592337
vt 0.745276 0.305792
vt 0.276208 0.065302
vt 0.745276 0.065302
vt 0.524829 0.698266
vt 0.418899 0.592337
vt 0.524829 0.592337
vt 0.454587 0.607432
vt 0.419452 0.642568
vt 0.419452 0.607432
vt 0.490862 0.612222
vt 0.465305 0.637778
vt 0.465305 0.612222
vt 0.473220 0.148030
vt 0.418573 0.698266
vt 0.276208 0.305792
vt 0.418899 0.698266
vt 0.454587 0.642568
vt 0.490862 0.637778
s 0
f 2/1/1 3/2/1 1/3/1
f 4/4/2 7/5/2 3/6/2
f 8/7/3 5/8/3 7/9/3
f 6/10/4 1/11/4 5/12/4
f 7/13/5 1/14/5 3/15/5
f 4/16/6 6/17/6 8/18/6
f 2/1/1 4/19/1 3/2/1
f 4/4/2 8/20/2 7/5/2
f 8/7/3 6/21/3 5/8/3
f 6/10/4 2/22/4 1/11/4
f 7/13/5 5/23/5 1/14/5
f 4/16/6 2/24/6 6/17/6
o Cube.001
v -0.097819 0.205361 0.313506
v -0.097819 0.539444 0.313506
v -0.097819 0.205361 -0.313506
v -0.097819 0.539444 -0.313506
v 0.097819 0.205361 0.313506
v 0.097819 0.539444 0.313506
v 0.097819 0.205361 -0.313506
v 0.097819 0.539444 -0.313506
v -0.097819 0.372402 0.313506
v -0.097819 0.539444 0.000000
v -0.097819 0.372402 -0.313506
v 0.000000 0.205361 -0.313506
v 0.000000 0.539444 -0.313506
v 0.097819 0.372402 -0.313506
v 0.097819 0.539444 0.000000
v 0.097819 0.372402 0.313506
v 0.000000 0.205361 0.313506
v 0.000000 0.539444 0.313506
v 0.000000 0.539444 0.000000
v 0.000000 0.372402 0.313506
v 0.000000 0.372402 -0.313506
v -0.097819 0.205361 0.156753
v -0.097819 0.455923 0.313506
v -0.097819 0.539444 -0.156753
v -0.097819 0.288882 -0.313506
v -0.048909 0.205361 -0.313506
v 0.048909 0.539444 -0.313506
v 0.097819 0.288882 -0.313506
v 0.097819 0.205361 -0.156753
v 0.097819 0.539444 0.156753
v 0.097819 0.288882 0.313506
v 0.048909 0.205361 0.313506
v -0.048909 0.539444 0.313506
v -0.097819 0.205361 -0.156753
v -0.097819 0.288882 0.313506
v -0.097819 0.539444 0.156753
v -0.097819 0.455923 -0.313506
v 0.048909 0.205361 -0.313506
v -0.048909 0.539444 -0.313506
v 0.097819 0.455923 -0.313506
v 0.097819 0.205361 0.156753
v 0.097819 0.539444 -0.156753
v 0.097819 0.455923 0.313506
v -0.048909 0.205361 0.313506
v 0.048909 0.539444 0.313506
v 0.000000 0.539444 0.156753
v 0.000000 0.539444 -0.156753
v 0.048909 0.539444 0.000000
v -0.048909 0.539444 0.000000
v 0.000000 0.205361 0.156753
v 0.000000 0.205361 -0.156753
v -0.048909 0.372402 0.313506
v 0.048909 0.372402 0.313506
v 0.000000 0.288882 0.313506
v 0.000000 0.455923 0.313506
v 0.097819 0.372402 0.156753
v 0.097819 0.372402 -0.156753
v 0.097819 0.455923 0.000000
v 0.048909 0.372402 -0.313506
v -0.048909 0.372402 -0.313506
v 0.000000 0.288882 -0.313506
v 0.000000 0.455923 -0.313506
v -0.097819 0.372402 -0.156753
v -0.097819 0.372402 0.156753
v -0.097819 0.455923 0.000000
v -0.097819 0.455923 0.156753
v -0.097819 0.288882 0.156753
v -0.097819 0.288882 -0.156753
v -0.048909 0.455923 -0.313506
v -0.048909 0.288882 -0.313506
v 0.048909 0.288882 -0.313506
v 0.097819 0.455923 -0.156753
v 0.097819 0.288882 -0.156753
v 0.097819 0.288882 0.156753
v 0.048909 0.455923 0.313506
v 0.048909 0.288882 0.313506
v -0.048909 0.288882 0.313506
v 0.048909 0.205361 -0.156753
v -0.048909 0.205361 -0.156753
v -0.048909 0.205361 0.156753
v -0.048909 0.539444 -0.156753
v 0.048909 0.539444 -0.156753
v 0.048909 0.539444 0.156753
v -0.048909 0.539444 0.156753
v 0.048909 0.205361 0.156753
v -0.048909 0.455923 0.313506
v 0.097819 0.455923 0.156753
v 0.048909 0.455923 -0.313506
v -0.097819 0.455923 -0.156753
vn -1.0000 -0.0000 -0.0000
vn -0.0000 -0.0000 -1.0000
vn 1.0000 -0.0000 -0.0000
vn -0.0000 -0.0000 1.0000
vn -0.0000 -1.0000 -0.0000
vn -0.0000 1.0000 -0.0000
vt 0.515613 0.611831
vt 0.513620 0.613824
vt 0.513620 0.611831
vt 0.515613 0.619804
vt 0.513620 0.621798
vt 0.513620 0.619804
vt 0.515613 0.627778
vt 0.513620 0.629771
vt 0.513620 0.627778
vt 0.515613 0.635751
vt 0.513620 0.637745
vt 0.513620 0.635751
vt 0.507640 0.627778
vt 0.505646 0.629771
vt 0.505646 0.627778
vt 0.523587 0.627778
vt 0.521593 0.629771
vt 0.521593 0.627778
vt 0.519600 0.627778
vt 0.517607 0.629771
vt 0.517607 0.627778
vt 0.519600 0.623791
vt 0.517607 0.625785
vt 0.517607 0.623791
vt 0.523587 0.623791
vt 0.521593 0.625785
vt 0.521593 0.623791
vt 0.503653 0.627778
vt 0.501660 0.629771
vt 0.501660 0.627778
vt 0.511626 0.635751
vt 0.509633 0.637745
vt 0.509633 0.635751
vt 0.511626 0.631765
vt 0.509633 0.633758
vt 0.509633 0.631765
vt 0.515613 0.631765
vt 0.513620 0.633758
vt 0.513620 0.631765
vt 0.511626 0.627778
vt 0.509633 0.629771
vt 0.509633 0.627778
vt 0.515613 0.623791
vt 0.513620 0.625785
vt 0.513620 0.623791
vt 0.511626 0.619804
vt 0.509633 0.621798
vt 0.509633 0.619804
vt 0.511626 0.615818
vt 0.509633 0.617811
vt 0.509633 0.615818
vt 0.515613 0.615818
vt 0.513620 0.617811
vt 0.513620 0.615818
vt 0.511626 0.611831
vt 0.509633 0.613824
vt 0.509633 0.611831
vt 0.515613 0.607844
vt 0.513620 0.609837
vt 0.513620 0.607844
vt 0.513620 0.605851
vt 0.511626 0.607844
vt 0.511626 0.605851
vt 0.515613 0.605851
vt 0.509633 0.605851
vt 0.507640 0.607844
vt 0.507640 0.605851
vt 0.509633 0.607844
vt 0.507640 0.613824
vt 0.507640 0.611831
vt 0.511626 0.617811
vt 0.511626 0.613824
vt 0.515613 0.613824
vt 0.507640 0.617811
vt 0.507640 0.615818
vt 0.507640 0.621798
vt 0.507640 0.619804
vt 0.511626 0.623791
vt 0.511626 0.621798
vt 0.515613 0.621798
vt 0.507640 0.623791
vt 0.509633 0.623791
vt 0.507640 0.629771
vt 0.511626 0.633758
vt 0.511626 0.629771
vt 0.515613 0.629771
vt 0.507640 0.633758
vt 0.507640 0.631765
vt 0.507640 0.637745
vt 0.507640 0.635751
vt 0.505646 0.621798
vt 0.503653 0.623791
vt 0.503653 0.621798
vt 0.505646 0.623791
vt 0.501660 0.621798
vt 0.499666 0.623791
vt 0.499666 0.621798
vt 0.501660 0.623791
vt 0.499666 0.629771
vt 0.499666 0.627778
vt 0.519600 0.625785
vt 0.521593 0.621798
vt 0.519600 0.621798
vt 0.523587 0.621798
vt 0.515613 0.625785
vt 0.517607 0.621798
vt 0.519600 0.629771
vt 0.523587 0.625785
vt 0.503653 0.629771
vt 0.511626 0.637745
vt 0.515613 0.633758
vt 0.515613 0.617811
vt 0.515613 0.609837
vt 0.515613 0.637745
vt 0.523587 0.629771
s 0
f 32/25/7 45/26/7 97/27/7
f 35/28/8 48/29/8 96/30/8
f 38/31/9 51/32/9 95/33/9
f 41/34/10 31/35/10 94/36/10
f 49/37/11 40/38/11 93/39/11
f 44/40/12 41/41/12 92/42/12
f 54/43/12 53/44/12 91/45/12
f 55/46/12 56/47/12 90/48/12
f 32/49/12 57/50/12 89/51/12
f 58/52/11 52/53/11 88/54/11
f 60/55/10 43/56/10 85/57/10
f 61/58/10 62/59/10 84/60/10
f 53/61/10 63/62/10 83/63/10
f 64/64/9 39/65/9 82/66/9
f 50/67/9 66/68/9 80/69/9
f 67/70/8 36/71/8 79/72/8
f 68/73/8 69/74/8 78/75/8
f 47/76/8 70/77/8 77/78/8
f 71/79/7 33/80/7 76/81/7
f 44/82/7 73/83/7 74/84/7
f 31/85/7 72/86/7 17/87/7
f 10/88/7 74/84/7 31/85/7
f 43/89/7 30/90/7 9/91/7
f 17/87/7 75/92/7 43/89/7
f 76/81/7 11/93/7 42/94/7
f 77/78/8 29/95/8 68/73/8
f 45/26/8 68/73/8 19/96/8
f 12/97/8 77/78/8 45/26/8
f 78/75/8 20/98/8 34/99/8
f 33/80/8 34/99/8 11/93/8
f 19/96/8 78/75/8 33/80/8
f 79/72/8 15/100/8 46/101/8
f 69/74/8 46/101/8 20/98/8
f 29/95/8 79/72/8 69/74/8
f 48/29/9 65/102/9 22/103/9
f 16/104/9 80/69/9 48/29/9
f 36/71/9 37/105/9 15/100/9
f 22/103/9 81/106/9 36/71/9
f 82/66/9 13/107/9 49/37/9
f 83/63/10 28/108/10 61/58/10
f 51/32/10 61/58/10 24/109/10
f 14/110/10 83/63/10 51/32/10
f 84/60/10 25/111/10 40/112/10
f 39/65/10 40/112/10 13/107/10
f 24/109/10 84/60/10 39/65/10
f 85/57/10 9/113/10 52/114/10
f 62/59/10 52/114/10 25/111/10
f 28/108/10 85/57/10 62/59/10
f 46/115/11 59/116/11 20/117/11
f 15/100/11 86/118/11 46/115/11
f 34/119/11 42/120/11 11/121/11
f 20/117/11 87/122/11 34/119/11
f 88/54/11 9/123/11 30/124/11
f 89/51/12 27/125/12 55/46/12
f 47/126/12 55/46/12 21/127/12
f 12/128/12 89/51/12 47/126/12
f 90/48/12 23/129/12 50/67/12
f 35/130/12 50/67/12 16/104/12
f 21/127/12 90/48/12 35/130/12
f 91/45/12 14/110/12 38/31/12
f 56/47/12 38/31/12 23/129/12
f 27/125/12 91/45/12 56/47/12
f 92/42/12 26/131/12 54/43/12
f 57/50/12 54/43/12 27/125/12
f 18/132/12 92/42/12 57/50/12
f 93/39/11 25/133/11 58/52/11
f 94/36/10 17/134/10 60/55/10
f 63/62/10 60/55/10 28/108/10
f 26/135/10 94/36/10 63/62/10
f 95/33/9 24/109/9 64/64/9
f 23/129/9 95/33/9 66/68/9
f 96/30/8 22/103/8 67/70/8
f 70/77/8 67/70/8 29/95/8
f 21/136/8 96/30/8 70/77/8
f 97/27/7 19/96/7 71/79/7
f 18/137/7 97/27/7 73/83/7
f 86/118/10 65/102/10 71/79/10
f 73/83/11 80/69/11 66/68/11
f 82/66/8 58/52/8 75/92/8
f 32/25/7 12/97/7 45/26/7
f 35/28/8 16/104/8 48/29/8
f 38/31/9 14/110/9 51/32/9
f 41/34/10 10/138/10 31/35/10
f 49/37/11 13/107/11 40/38/11
f 44/40/12 10/139/12 41/41/12
f 54/43/12 26/131/12 53/44/12
f 55/46/12 27/125/12 56/47/12
f 32/49/12 18/132/12 57/50/12
f 58/52/11 25/133/11 52/53/11
f 60/55/10 17/134/10 43/56/10
f 61/58/10 28/108/10 62/59/10
f 53/61/10 26/135/10 63/62/10
f 64/64/9 24/109/9 39/65/9
f 50/67/9 23/129/9 66/68/9
f 67/70/8 22/103/8 36/71/8
f 68/73/8 29/95/8 69/74/8
f 47/76/8 21/136/8 70/77/8
f 71/79/7 19/96/7 33/80/7
f 44/82/7 18/137/7 73/83/7
f 31/85/7 74/84/7 72/86/7
f 10/88/7 44/82/7 74/84/7
f 43/89/7 75/92/7 30/90/7
f 17/87/7 72/86/7 75/92/7
f 76/81/7 33/80/7 11/93/7
f 77/78/8 70/77/8 29/95/8
f 45/26/8 77/78/8 68/73/8
f 12/97/8 47/76/8 77/78/8
f 78/75/8 69/74/8 20/98/8
f 33/80/8 78/75/8 34/99/8
f 19/96/8 68/73/8 78/75/8
f 79/72/8 36/71/8 15/100/8
f 69/74/8 79/72/8 46/101/8
f 29/95/8 67/70/8 79/72/8
f 48/29/9 80/69/9 65/102/9
f 16/104/9 50/67/9 80/69/9
f 36/71/9 81/106/9 37/105/9
f 22/103/9 65/102/9 81/106/9
f 82/66/9 39/65/9 13/107/9
f 83/63/10 63/62/10 28/108/10
f 51/32/10 83/63/10 61/58/10
f 14/110/10 53/61/10 83/63/10
f 84/60/10 62/59/10 25/111/10
f 39/65/10 84/60/10 40/112/10
f 24/109/10 61/58/10 84/60/10
f 85/57/10 43/56/10 9/113/10
f 62/59/10 85/57/10 52/114/10
f 28/108/10 60/55/10 85/57/10
f 46/115/11 86/118/11 59/116/11
f 15/100/11 37/105/11 86/118/11
f 34/119/11 87/122/11 42/120/11
f 20/117/11 59/116/11 87/122/11
f 88/54/11 52/53/11 9/123/11
f 89/51/12 57/50/12 27/125/12
f 47/126/12 89/51/12 55/46/12
f 12/128/12 32/49/12 89/51/12
f 90/48/12 56/47/12 23/129/12
f 35/130/12 90/48/12 50/67/12
f 21/127/12 55/46/12 90/48/12
f 91/45/12 53/44/12 14/110/12
f 56/47/12 91/45/12 38/31/12
f 27/125/12 54/43/12 91/45/12
f 92/42/12 41/41/12 26/131/12
f 57/50/12 92/42/12 54/43/12
f 18/132/12 44/40/12 92/42/12
f 93/39/11 40/38/11 25/133/11
f 94/36/10 31/35/10 17/134/10
f 63/62/10 94/36/10 60/55/10
f 26/135/10 41/34/10 94/36/10
f 95/33/9 51/32/9 24/109/9
f 23/129/9 38/31/9 95/33/9
f 96/30/8 48/29/8 22/103/8
f 70/77/8 96/30/8 67/70/8
f 21/136/8 35/28/8 96/30/8
f 97/27/7 45/26/7 19/96/7
f 18/137/7 32/25/7 97/27/7
f 76/81/10 42/120/10 87/122/10
f 76/81/10 87/122/10 59/116/10
f 80/69/10 97/27/10 71/79/10
f 71/79/10 76/81/10 59/116/10
f 86/118/10 37/105/10 81/106/10
f 71/79/10 59/116/10 86/118/10
f 65/102/10 80/69/10 71/79/10
f 86/118/10 81/106/10 65/102/10
f 95/33/11 74/84/11 73/83/11
f 73/83/11 97/27/11 80/69/11
f 66/68/11 95/33/11 73/83/11
f 72/86/8 74/84/8 95/33/8
f 72/86/8 95/33/8 64/64/8
f 88/54/8 30/90/8 75/92/8
f 75/92/8 72/86/8 64/64/8
f 82/66/8 49/37/8 93/39/8
f 75/92/8 64/64/8 82/66/8
f 58/52/8 88/54/8 75/92/8
f 82/66/8 93/39/8 58/52/8
