# Blender 4.1.1
# www.blender.org
o Plane
v -18.400000 0.000001 18.400000
v 18.400000 0.000001 18.400000
v -18.400000 -0.000001 -18.400000
v 18.400000 -0.000001 -18.400000
v 0.000000 -0.000001 -18.400000
v 0.000000 0.000001 18.400000
v 0.000000 0.000000 0.000000
v 18.400000 0.000000 0.000000
v -18.400000 0.000000 0.000000
v 9.200000 -0.000001 -18.400000
v 9.200000 0.000001 18.400000
v -9.200000 -0.000001 -9.200000
v 18.400000 -0.000001 -9.200000
v -18.400000 -0.000001 -9.200000
v -9.200000 -0.000001 -18.400000
v -9.200000 0.000001 18.400000
v 9.200000 0.000001 9.200000
v 18.400000 0.000001 9.200000
v -18.400000 0.000001 9.200000
v 0.000000 -0.000001 -9.200000
v 9.200000 0.000000 0.000000
v 9.200000 -0.000001 -9.200000
v -9.200000 0.000001 9.200000
v 0.000000 0.000001 9.200000
v -9.200000 0.000000 0.000000
v 13.799999 -0.000001 -18.400000
v 13.799999 0.000001 18.400000
v -13.799999 -0.000001 -13.799999
v 18.400000 -0.000001 -13.799999
v -18.400000 -0.000001 -13.799999
v -4.600000 -0.000001 -18.400000
v -4.600000 0.000001 18.400000
v 4.600000 0.000000 4.600000
v 18.400000 0.000000 4.600000
v -18.400000 0.000000 4.600000
v 0.000000 -0.000001 -13.799999
v 13.799999 0.000000 0.000000
v 13.799999 -0.000000 -4.600000
v -13.799999 0.000000 4.600000
v 0.000000 0.000000 4.600000
v -4.600000 0.000000 0.000000
v 4.600000 -0.000001 -18.400000
v 4.600000 0.000001 18.400000
v -4.600000 -0.000000 -4.600000
v 18.400000 -0.000000 -4.600000
v -18.400000 -0.000000 -4.600000
v -13.799999 -0.000001 -18.400000
v -13.799999 0.000001 18.400000
v 13.799999 0.000001 13.799999
v 18.400000 0.000001 13.799999
v -18.400000 0.000001 13.799999
v 0.000000 -0.000000 -4.600000
v 4.600000 0.000000 0.000000
v 4.600000 -0.000001 -13.799999
v -4.600000 0.000001 13.799999
v 0.000000 0.000001 13.799999
v -13.799999 0.000000 0.000000
v -13.799999 -0.000000 -4.600000
v -9.200000 -0.000000 -4.600000
v -13.799999 -0.000001 -9.200000
v -9.200000 0.000000 4.600000
v -4.600000 0.000001 9.200000
v -4.600000 0.000000 4.600000
v -13.799999 0.000001 13.799999
v -9.200000 0.000001 13.799999
v -13.799999 0.000001 9.200000
v 9.200000 -0.000001 -13.799999
v 13.799999 -0.000001 -9.200000
v 13.799999 -0.000001 -13.799999
v 4.600000 -0.000001 -9.200000
v 4.600000 -0.000000 -4.600000
v 9.200000 -0.000000 -4.600000
v -9.200000 -0.000001 -13.799999
v -4.600000 -0.000001 -9.200000
v -4.600000 -0.000001 -13.799999
v 9.200000 0.000000 4.600000
v 13.799999 0.000001 9.200000
v 13.799999 0.000000 4.600000
v 4.600000 0.000001 13.799999
v 9.200000 0.000001 13.799999
v 4.600000 0.000001 9.200000
vn -0.0000 1.0000 -0.0000
vt 13.408333 -12.408333
vt 10.181250 -9.181250
vt 10.181250 -12.408333
vt 13.408333 -9.181250
vt 0.500000 0.500000
vt 0.500000 3.727083
vt -2.727083 3.727083
vt 3.727083 0.500000
vt 13.408333 0.500000
vt 13.408333 3.727083
vt 10.181250 3.727083
vt 0.500000 -12.408333
vt -2.727083 -9.181250
vt -2.727083 -12.408333
vt 0.500000 -9.181250
vt -2.727083 0.500000
vt -5.954166 0.500000
vt -9.181250 3.727083
vt -9.181250 0.500000
vt -5.954166 3.727083
vt -5.954166 6.954166
vt -9.181250 10.181250
vt -9.181250 6.954166
vt -5.954166 -5.954166
vt -5.954166 -2.727083
vt -9.181250 -2.727083
vt -2.727083 -5.954166
vt 0.500000 -5.954166
vt 0.500000 -2.727083
vt -2.727083 -2.727083
vt -5.954166 -12.408333
vt -9.181250 -9.181250
vt -9.181250 -12.408333
vt -5.954166 -9.181250
vt -9.181250 -5.954166
vt 6.954166 6.954166
vt 6.954166 10.181250
vt 3.727083 10.181250
vt 10.181250 6.954166
vt 13.408333 6.954166
vt 13.408333 10.181250
vt 10.181250 10.181250
vt 0.500000 6.954166
vt 3.727083 6.954166
vt 0.500000 10.181250
vt 3.727083 3.727083
vt 6.954166 0.500000
vt 10.181250 0.500000
vt 6.954166 3.727083
vt -5.954166 10.181250
vt -2.727083 6.954166
vt -2.727083 10.181250
vt 6.954166 -5.954166
vt 6.954166 -2.727083
vt 3.727083 -2.727083
vt 10.181250 -5.954166
vt 13.408333 -5.954166
vt 13.408333 -2.727083
vt 10.181250 -2.727083
vt 6.954166 -12.408333
vt 3.727083 -9.181250
vt 3.727083 -12.408333
vt 6.954166 -9.181250
vt 3.727083 -5.954166
vt -2.727083 13.408333
vt -5.954166 13.408333
vt 0.500000 13.408333
vt -9.181250 13.408333
vt -12.408333 13.408333
vt 10.181250 13.408333
vt 6.954166 13.408333
vt 13.408333 13.408333
vt 3.727083 13.408333
vt -12.408333 -2.727083
vt -12.408333 -5.954166
vt -12.408333 0.500000
vt -12.408333 -9.181250
vt -12.408333 -12.408333
vt -12.408333 10.181250
vt -12.408333 6.954166
vt -12.408333 3.727083
s 0
f 2/1/1 49/2/1 27/3/1
f 2/1/1 50/4/1 49/2/1
f 7/5/1 52/6/1 44/7/1
f 7/5/1 53/8/1 52/6/1
f 8/9/1 45/10/1 38/11/1
f 6/12/1 55/13/1 32/14/1
f 6/12/1 56/15/1 55/13/1
f 7/5/1 44/7/1 41/16/1
f 25/17/1 58/18/1 57/19/1
f 25/17/1 59/20/1 58/18/1
f 12/21/1 28/22/1 60/23/1
f 23/24/1 61/25/1 39/26/1
f 23/24/1 62/27/1 61/25/1
f 24/28/1 40/29/1 63/30/1
f 16/31/1 64/32/1 48/33/1
f 16/31/1 65/34/1 64/32/1
f 23/24/1 39/26/1 66/35/1
f 22/36/1 67/37/1 54/38/1
f 22/36/1 68/39/1 67/37/1
f 13/40/1 29/41/1 69/42/1
f 20/43/1 70/44/1 36/45/1
f 20/43/1 71/46/1 70/44/1
f 21/47/1 37/48/1 72/49/1
f 12/21/1 73/50/1 28/22/1
f 12/21/1 74/51/1 73/50/1
f 20/43/1 36/45/1 75/52/1
f 17/53/1 76/54/1 33/55/1
f 17/53/1 77/56/1 76/54/1
f 18/57/1 34/58/1 78/59/1
f 11/60/1 79/61/1 43/62/1
f 11/60/1 80/63/1 79/61/1
f 17/53/1 33/55/1 81/64/1
f 81/64/1 40/29/1 24/28/1
f 81/64/1 33/55/1 40/29/1
f 33/55/1 7/5/1 40/29/1
f 79/61/1 81/64/1 24/28/1
f 79/61/1 80/63/1 81/64/1
f 80/63/1 17/53/1 81/64/1
f 43/62/1 56/15/1 6/12/1
f 43/62/1 79/61/1 56/15/1
f 79/61/1 24/28/1 56/15/1
f 78/59/1 37/48/1 21/47/1
f 78/59/1 34/58/1 37/48/1
f 34/58/1 8/9/1 37/48/1
f 76/54/1 78/59/1 21/47/1
f 76/54/1 77/56/1 78/59/1
f 77/56/1 18/57/1 78/59/1
f 33/55/1 53/8/1 7/5/1
f 33/55/1 76/54/1 53/8/1
f 76/54/1 21/47/1 53/8/1
f 75/52/1 31/65/1 15/66/1
f 75/52/1 36/45/1 31/65/1
f 36/45/1 5/67/1 31/65/1
f 73/50/1 75/52/1 15/66/1
f 73/50/1 74/51/1 75/52/1
f 74/51/1 20/43/1 75/52/1
f 28/22/1 47/68/1 3/69/1
f 28/22/1 73/50/1 47/68/1
f 73/50/1 15/66/1 47/68/1
f 72/49/1 38/11/1 22/36/1
f 72/49/1 37/48/1 38/11/1
f 37/48/1 8/9/1 38/11/1
f 70/44/1 72/49/1 22/36/1
f 70/44/1 71/46/1 72/49/1
f 71/46/1 21/47/1 72/49/1
f 36/45/1 54/38/1 5/67/1
f 36/45/1 70/44/1 54/38/1
f 70/44/1 22/36/1 54/38/1
f 69/42/1 26/70/1 10/71/1
f 69/42/1 29/41/1 26/70/1
f 29/41/1 4/72/1 26/70/1
f 67/37/1 69/42/1 10/71/1
f 67/37/1 68/39/1 69/42/1
f 68/39/1 13/40/1 69/42/1
f 54/38/1 42/73/1 5/67/1
f 54/38/1 67/37/1 42/73/1
f 67/37/1 10/71/1 42/73/1
f 66/35/1 35/74/1 19/75/1
f 66/35/1 39/26/1 35/74/1
f 39/26/1 9/76/1 35/74/1
f 64/32/1 66/35/1 19/75/1
f 64/32/1 65/34/1 66/35/1
f 65/34/1 23/24/1 66/35/1
f 48/33/1 51/77/1 1/78/1
f 48/33/1 64/32/1 51/77/1
f 64/32/1 19/75/1 51/77/1
f 63/30/1 41/16/1 25/17/1
f 63/30/1 40/29/1 41/16/1
f 40/29/1 7/5/1 41/16/1
f 61/25/1 63/30/1 25/17/1
f 61/25/1 62/27/1 63/30/1
f 62/27/1 24/28/1 63/30/1
f 39/26/1 57/19/1 9/76/1
f 39/26/1 61/25/1 57/19/1
f 61/25/1 25/17/1 57/19/1
f 60/23/1 30/79/1 14/80/1
f 60/23/1 28/22/1 30/79/1
f 28/22/1 3/69/1 30/79/1
f 58/18/1 60/23/1 14/80/1
f 58/18/1 59/20/1 60/23/1
f 59/20/1 12/21/1 60/23/1
f 57/19/1 46/81/1 9/76/1
f 57/19/1 58/18/1 46/81/1
f 58/18/1 14/80/1 46/81/1
f 41/16/1 59/20/1 25/17/1
f 41/16/1 44/7/1 59/20/1
f 44/7/1 12/21/1 59/20/1
f 55/13/1 62/27/1 23/24/1
f 55/13/1 56/15/1 62/27/1
f 56/15/1 24/28/1 62/27/1
f 32/14/1 65/34/1 16/31/1
f 32/14/1 55/13/1 65/34/1
f 55/13/1 23/24/1 65/34/1
f 38/11/1 68/39/1 22/36/1
f 38/11/1 45/10/1 68/39/1
f 45/10/1 13/40/1 68/39/1
f 52/6/1 71/46/1 20/43/1
f 52/6/1 53/8/1 71/46/1
f 53/8/1 21/47/1 71/46/1
f 44/7/1 74/51/1 12/21/1
f 44/7/1 52/6/1 74/51/1
f 52/6/1 20/43/1 74/51/1
f 49/2/1 77/56/1 17/53/1
f 49/2/1 50/4/1 77/56/1
f 50/4/1 18/57/1 77/56/1
f 27/3/1 80/63/1 11/60/1
f 27/3/1 49/2/1 80/63/1
f 49/2/1 17/53/1 80/63/1
