# Blender 4.1.1
# www.blender.org
o Cube
v -0.200000 0.000000 1.800000
v -0.200000 2.000000 1.800000
v -0.200000 0.000000 -1.800000
v -0.200000 2.000000 -1.800000
v 0.200000 0.000000 1.800000
v 0.200000 2.000000 1.800000
v 0.200000 0.000000 -1.800000
v 0.200000 2.000000 -1.800000
vn -1.0000 -0.0000 -0.0000
vn -0.0000 -0.0000 -1.0000
vn 1.0000 -0.0000 -0.0000
vn -0.0000 -0.0000 1.0000
vn -0.0000 -1.0000 -0.0000
vn -0.0000 1.0000 -0.0000
vt 0.625000 0.000000
vt 0.375000 0.250000
vt 0.375000 0.000000
vt 0.625000 0.250000
vt 0.375000 0.500000
vt 0.994855 1.017824
vt 0.005144 0.009954
vt 0.994855 0.009954
vt 0.625000 0.750000
vt 0.375000 1.000000
vt 0.375000 0.750000
vt 0.125000 0.750000
vt 0.125000 0.500000
vt 0.875000 0.500000
vt 0.625000 0.500000
vt 0.005144 1.017824
vt 0.625000 1.000000
vt 0.875000 0.750000
s 0
f 2/1/1 3/2/1 1/3/1
f 4/4/2 7/5/2 3/2/2
f 8/6/3 5/7/3 7/8/3
f 6/9/4 1/10/4 5/11/4
f 7/5/5 1/12/5 3/13/5
f 4/14/6 6/9/6 8/15/6
f 2/1/1 4/4/1 3/2/1
f 4/4/2 8/15/2 7/5/2
f 8/6/3 6/16/3 5/7/3
f 6/9/4 2/17/4 1/10/4
f 7/5/5 5/11/5 1/12/5
f 4/14/6 2/18/6 6/9/6
