# Blender 4.1.1
# www.blender.org
o Cube
v -2.737508 1.900000 2.016695
v -2.737508 2.100000 2.016695
v -2.737508 1.900000 -2.016695
v -2.737508 2.100000 -2.016695
v 2.718931 1.900000 2.016695
v 2.718931 2.100000 2.016695
v 2.718931 1.900000 -2.016695
v 2.718931 2.100000 -2.016695
vn -1.0000 -0.0000 -0.0000
vn -0.0000 -0.0000 -1.0000
vn 1.0000 -0.0000 -0.0000
vn -0.0000 -0.0000 1.0000
vn -0.0000 -1.0000 -0.0000
vn -0.0000 1.0000 -0.0000
vt 1.124010 0.318550
vt 0.400990 0.258764
vt 1.124010 0.258764
vt 0.725128 0.314705
vt 0.449872 0.215734
vt 0.725128 0.215734
vt 0.559667 0.313341
vt 0.265333 0.227515
vt 0.559667 0.227515
vt 0.405741 0.348047
vt 0.069259 0.263121
vt 0.405741 0.263121
vt 0.500000 0.650376
vt 0.325000 0.475376
vt 0.500000 0.475376
vt 0.332808 0.474777
vt 0.492192 0.023651
vt 0.492192 0.474777
vt 0.400990 0.318550
vt 0.449872 0.314705
vt 0.265333 0.313341
vt 0.069259 0.348047
vt 0.325000 0.650376
vt 0.332808 0.023651
s 0
f 2/1/1 3/2/1 1/3/1
f 4/4/2 7/5/2 3/6/2
f 8/7/3 5/8/3 7/9/3
f 6/10/4 1/11/4 5/12/4
f 7/13/5 1/14/5 3/15/5
f 4/16/6 6/17/6 8/18/6
f 2/1/1 4/19/1 3/2/1
f 4/4/2 8/20/2 7/5/2
f 8/7/3 6/21/3 5/8/3
f 6/10/4 2/22/4 1/11/4
f 7/13/5 5/23/5 1/14/5
f 4/16/6 2/24/6 6/17/6
o Cube.001
v -2.658878 -0.000000 -1.742967
v -2.658878 2.000000 -1.742967
v -2.658878 -0.000000 -1.973921
v -2.658878 2.000000 -1.973921
v -2.435886 -0.000000 -1.742967
v -2.435886 2.000000 -1.742967
v -2.435886 -0.000000 -1.973921
v -2.435886 2.000000 -1.973921
vn -1.0000 -0.0000 -0.0000
vn -0.0000 -0.0000 -1.0000
vn 1.0000 -0.0000 -0.0000
vn -0.0000 -0.0000 1.0000
vn -0.0000 -1.0000 -0.0000
vn -0.0000 1.0000 -0.0000
vt 0.815000 0.334312
vt 0.657500 0.176812
vt 0.815000 0.176812
vt 0.657500 0.334312
vt 0.500000 0.176812
vt 0.500000 0.334312
vt 0.342500 0.176812
vt 0.342500 0.334312
vt 0.185000 0.176812
vt 0.342500 0.019312
vt 0.500000 0.019312
vt 0.500000 0.491812
vt 0.185000 0.334312
vt 0.342500 0.491812
s 0
f 10/25/7 11/26/7 9/27/7
f 12/28/8 15/29/8 11/26/8
f 16/30/9 13/31/9 15/29/9
f 14/32/10 9/33/10 13/31/10
f 15/29/11 9/34/11 11/35/11
f 12/36/12 14/32/12 16/30/12
f 10/25/7 12/28/7 11/26/7
f 12/28/8 16/30/8 15/29/8
f 16/30/9 14/32/9 13/31/9
f 14/32/10 10/37/10 9/33/10
f 15/29/11 13/31/11 9/34/11
f 12/36/12 10/38/12 14/32/12
o Cube.002
v -2.658878 0.000000 1.978924
v -2.658878 2.000000 1.978924
v -2.658878 0.000000 1.747970
v -2.658878 2.000000 1.747970
v -2.435886 0.000000 1.978924
v -2.435886 2.000000 1.978924
v -2.435886 0.000000 1.747970
v -2.435886 2.000000 1.747970
vn -1.0000 -0.0000 -0.0000
vn -0.0000 -0.0000 -1.0000
vn 1.0000 -0.0000 -0.0000
vn -0.0000 -0.0000 1.0000
vn -0.0000 -1.0000 -0.0000
vn -0.0000 1.0000 -0.0000
vt 0.815000 0.334312
vt 0.657500 0.176812
vt 0.815000 0.176812
vt 0.657500 0.334312
vt 0.500000 0.176812
vt 0.500000 0.334312
vt 0.342500 0.176812
vt 0.342500 0.334312
vt 0.185000 0.176812
vt 0.342500 0.019312
vt 0.500000 0.019312
vt 0.500000 0.491812
vt 0.185000 0.334312
vt 0.342500 0.491812
s 0
f 18/39/13 19/40/13 17/41/13
f 20/42/14 23/43/14 19/40/14
f 24/44/15 21/45/15 23/43/15
f 22/46/16 17/47/16 21/45/16
f 23/43/17 17/48/17 19/49/17
f 20/50/18 22/46/18 24/44/18
f 18/39/13 20/42/13 19/40/13
f 20/42/14 24/44/14 23/43/14
f 24/44/15 22/46/15 21/45/15
f 22/46/16 18/51/16 17/47/16
f 23/43/17 21/45/17 17/48/17
f 20/50/18 18/52/18 22/46/18
o Cube.003
v 2.410503 0.000000 1.978924
v 2.410503 2.000000 1.978924
v 2.410503 0.000000 1.747970
v 2.410503 2.000000 1.747970
v 2.633495 0.000000 1.978924
v 2.633495 2.000000 1.978924
v 2.633495 0.000000 1.747970
v 2.633495 2.000000 1.747970
vn -1.0000 -0.0000 -0.0000
vn -0.0000 -0.0000 -1.0000
vn 1.0000 -0.0000 -0.0000
vn -0.0000 -0.0000 1.0000
vn -0.0000 -1.0000 -0.0000
vn -0.0000 1.0000 -0.0000
vt 0.815000 0.334312
vt 0.657500 0.176812
vt 0.815000 0.176812
vt 0.657500 0.334312
vt 0.500000 0.176812
vt 0.500000 0.334312
vt 0.342500 0.176812
vt 0.342500 0.334312
vt 0.185000 0.176812
vt 0.342500 0.019312
vt 0.500000 0.019312
vt 0.500000 0.491812
vt 0.185000 0.334312
vt 0.342500 0.491812
s 0
f 26/53/19 27/54/19 25/55/19
f 28/56/20 31/57/20 27/54/20
f 32/58/21 29/59/21 31/57/21
f 30/60/22 25/61/22 29/59/22
f 31/57/23 25/62/23 27/63/23
f 28/64/24 30/60/24 32/58/24
f 26/53/19 28/56/19 27/54/19
f 28/56/20 32/58/20 31/57/20
f 32/58/21 30/60/21 29/59/21
f 30/60/22 26/65/22 25/61/22
f 31/57/23 29/59/23 25/62/23
f 28/64/24 26/66/24 30/60/24
o Cube.004
v 2.410503 -0.000000 -1.729593
v 2.410503 2.000000 -1.729593
v 2.410503 -0.000000 -1.960546
v 2.410503 2.000000 -1.960546
v 2.633495 -0.000000 -1.729593
v 2.633495 2.000000 -1.729593
v 2.633495 -0.000000 -1.960546
v 2.633495 2.000000 -1.960546
vn -1.0000 -0.0000 -0.0000
vn -0.0000 -0.0000 -1.0000
vn 1.0000 -0.0000 -0.0000
vn -0.0000 -0.0000 1.0000
vn -0.0000 -1.0000 -0.0000
vn -0.0000 1.0000 -0.0000
vt 0.815000 0.334312
vt 0.657500 0.176812
vt 0.815000 0.176812
vt 0.657500 0.334312
vt 0.500000 0.176812
vt 0.500000 0.334312
vt 0.342500 0.176812
vt 0.342500 0.334312
vt 0.185000 0.176812
vt 0.342500 0.019312
vt 0.500000 0.019312
vt 0.500000 0.491812
vt 0.185000 0.334312
vt 0.342500 0.491812
s 0
f 34/67/25 35/68/25 33/69/25
f 36/70/26 39/71/26 35/68/26
f 40/72/27 37/73/27 39/71/27
f 38/74/28 33/75/28 37/73/28
f 39/71/29 33/76/29 35/77/29
f 36/78/30 38/74/30 40/72/30
f 34/67/25 36/70/25 35/68/25
f 36/70/26 40/72/26 39/71/26
f 40/72/27 38/74/27 37/73/27
f 38/74/28 34/79/28 33/75/28
f 39/71/29 37/73/29 33/76/29
f 36/78/30 34/80/30 38/74/30
o Cube.005
v -1.000000 1.240597 -2.449978
v -1.000000 1.440597 -2.449978
v -1.000000 1.240597 -4.449978
v -1.000000 1.440597 -4.449978
v 1.000000 1.240597 -2.449978
v 1.000000 1.440597 -2.449978
v 1.000000 1.240597 -4.449978
v 1.000000 1.440597 -4.449978
vn -1.0000 -0.0000 -0.0000
vn -0.0000 -0.0000 -1.0000
vn 1.0000 -0.0000 -0.0000
vn -0.0000 -0.0000 1.0000
vn -0.0000 -1.0000 -0.0000
vn -0.0000 1.0000 -0.0000
vt 0.514711 0.717335
vt 0.485289 0.734988
vt 0.485289 0.717335
vt 0.514711 0.734988
vt 0.485289 0.752640
vt 0.514711 0.752640
vt 0.485289 0.770293
vt 0.514711 0.770293
vt 0.485289 0.787946
vt 0.455868 0.770293
vt 0.455868 0.752640
vt 0.544132 0.752640
vt 0.514711 0.787946
vt 0.544132 0.770293
s 0
f 42/81/31 43/82/31 41/83/31
f 44/84/32 47/85/32 43/82/32
f 48/86/33 45/87/33 47/85/33
f 46/88/34 41/89/34 45/87/34
f 47/85/35 41/90/35 43/91/35
f 44/92/36 46/88/36 48/86/36
f 42/81/31 44/84/31 43/82/31
f 44/84/32 48/86/32 47/85/32
f 48/86/33 46/88/33 45/87/33
f 46/88/34 42/93/34 41/89/34
f 47/85/35 45/87/35 41/90/35
f 44/92/36 42/94/36 46/88/36
o Cube.006
v 0.725887 0.002610 -4.165272
v 0.725887 1.347224 -4.165272
v 0.725887 0.002610 -4.396225
v 0.725887 1.347224 -4.396225
v 0.948880 0.002610 -4.165272
v 0.948880 1.347224 -4.165272
v 0.948880 0.002610 -4.396225
v 0.948880 1.347224 -4.396225
vn -1.0000 -0.0000 -0.0000
vn -0.0000 -0.0000 -1.0000
vn 1.0000 -0.0000 -0.0000
vn -0.0000 -0.0000 1.0000
vn -0.0000 -1.0000 -0.0000
vn -0.0000 1.0000 -0.0000
vt 0.800000 0.327281
vt 0.650000 0.177281
vt 0.800000 0.177281
vt 0.650000 0.327281
vt 0.500000 0.177281
vt 0.500000 0.327281
vt 0.350000 0.177281
vt 0.350000 0.327281
vt 0.200000 0.177281
vt 0.350000 0.027281
vt 0.500000 0.027281
vt 0.500000 0.477281
vt 0.200000 0.327281
vt 0.350000 0.477281
s 0
f 50/95/37 51/96/37 49/97/37
f 52/98/38 55/99/38 51/96/38
f 56/100/39 53/101/39 55/99/39
f 54/102/40 49/103/40 53/101/40
f 55/99/41 49/104/41 51/105/41
f 52/106/42 54/102/42 56/100/42
f 50/95/37 52/98/37 51/96/37
f 52/98/38 56/100/38 55/99/38
f 56/100/39 54/102/39 53/101/39
f 54/102/40 50/107/40 49/103/40
f 55/99/41 53/101/41 49/104/41
f 52/106/42 50/108/42 54/102/42
o Cube.007
v -0.949228 0.002610 -4.165670
v -0.949228 1.347224 -4.165670
v -0.949228 0.002610 -4.396623
v -0.949228 1.347224 -4.396623
v -0.726236 0.002610 -4.165670
v -0.726236 1.347224 -4.165670
v -0.726236 0.002610 -4.396623
v -0.726236 1.347224 -4.396623
vn -1.0000 -0.0000 -0.0000
vn -0.0000 -0.0000 -1.0000
vn 1.0000 -0.0000 -0.0000
vn -0.0000 -0.0000 1.0000
vn -0.0000 -1.0000 -0.0000
vn -0.0000 1.0000 -0.0000
vt 0.800000 0.327281
vt 0.650000 0.177281
vt 0.800000 0.177281
vt 0.650000 0.327281
vt 0.500000 0.177281
vt 0.500000 0.327281
vt 0.350000 0.177281
vt 0.350000 0.327281
vt 0.200000 0.177281
vt 0.350000 0.027281
vt 0.500000 0.027281
vt 0.500000 0.477281
vt 0.200000 0.327281
vt 0.350000 0.477281
s 0
f 58/109/43 59/110/43 57/111/43
f 60/112/44 63/113/44 59/110/44
f 64/114/45 61/115/45 63/113/45
f 62/116/46 57/117/46 61/115/46
f 63/113/47 57/118/47 59/119/47
f 60/120/48 62/116/48 64/114/48
f 58/109/43 60/112/43 59/110/43
f 60/112/44 64/114/44 63/113/44
f 64/114/45 62/116/45 61/115/45
f 62/116/46 58/121/46 57/117/46
f 63/113/47 61/115/47 57/118/47
f 60/120/48 58/122/48 62/116/48
o Cube.008
v -0.971589 0.002610 -2.474856
v -0.971589 1.347224 -2.474856
v -0.971589 0.002610 -2.705809
v -0.971589 1.347224 -2.705809
v -0.748597 0.002610 -2.474856
v -0.748597 1.347224 -2.474856
v -0.748597 0.002610 -2.705809
v -0.748597 1.347224 -2.705809
vn -1.0000 -0.0000 -0.0000
vn -0.0000 -0.0000 -1.0000
vn 1.0000 -0.0000 -0.0000
vn -0.0000 -0.0000 1.0000
vn -0.0000 -1.0000 -0.0000
vn -0.0000 1.0000 -0.0000
vt 0.800000 0.327281
vt 0.650000 0.177281
vt 0.800000 0.177281
vt 0.650000 0.327281
vt 0.500000 0.177281
vt 0.500000 0.327281
vt 0.350000 0.177281
vt 0.350000 0.327281
vt 0.200000 0.177281
vt 0.350000 0.027281
vt 0.500000 0.027281
vt 0.500000 0.477281
vt 0.200000 0.327281
vt 0.350000 0.477281
s 0
f 66/123/49 67/124/49 65/125/49
f 68/126/50 71/127/50 67/124/50
f 72/128/51 69/129/51 71/127/51
f 70/130/52 65/131/52 69/129/52
f 71/127/53 65/132/53 67/133/53
f 68/134/54 70/130/54 72/128/54
f 66/123/49 68/126/49 67/124/49
f 68/126/50 72/128/50 71/127/50
f 72/128/51 70/130/51 69/129/51
f 70/130/52 66/135/52 65/131/52
f 71/127/53 69/129/53 65/132/53
f 68/134/54 66/136/54 70/130/54
o Cube.009
v 0.734776 0.002610 -2.474856
v 0.734776 1.347224 -2.474856
v 0.734776 0.002610 -2.705809
v 0.734776 1.347224 -2.705809
v 0.957768 0.002610 -2.474856
v 0.957768 1.347224 -2.474856
v 0.957768 0.002610 -2.705809
v 0.957768 1.347224 -2.705809
vn -1.0000 -0.0000 -0.0000
vn -0.0000 -0.0000 -1.0000
vn 1.0000 -0.0000 -0.0000
vn -0.0000 -0.0000 1.0000
vn -0.0000 -1.0000 -0.0000
vn -0.0000 1.0000 -0.0000
vt 0.800000 0.327281
vt 0.650000 0.177281
vt 0.800000 0.177281
vt 0.650000 0.327281
vt 0.500000 0.177281
vt 0.500000 0.327281
vt 0.350000 0.177281
vt 0.350000 0.327281
vt 0.200000 0.177281
vt 0.350000 0.027281
vt 0.500000 0.027281
vt 0.500000 0.477281
vt 0.200000 0.327281
vt 0.350000 0.477281
s 0
f 74/137/55 75/138/55 73/139/55
f 76/140/56 79/141/56 75/138/56
f 80/142/57 77/143/57 79/141/57
f 78/144/58 73/145/58 77/143/58
f 79/141/59 73/146/59 75/147/59
f 76/148/60 78/144/60 80/142/60
f 74/137/55 76/140/55 75/138/55
f 76/140/56 80/142/56 79/141/56
f 80/142/57 78/144/57 77/143/57
f 78/144/58 74/149/58 73/145/58
f 79/141/59 77/143/59 73/146/59
f 76/148/60 74/150/60 78/144/60
o Cube.010
v -0.948930 1.331947 -4.229744
v -0.948930 3.331947 -4.229744
v -0.948930 1.331947 -4.425780
v -0.948930 3.331947 -4.425780
v 0.948930 1.331947 -4.229744
v 0.948930 3.331947 -4.229744
v 0.948930 1.331947 -4.425780
v 0.948930 3.331947 -4.425780
vn -1.0000 -0.0000 -0.0000
vn -0.0000 -0.0000 -1.0000
vn 1.0000 -0.0000 -0.0000
vn -0.0000 -0.0000 1.0000
vn -0.0000 -1.0000 -0.0000
vn -0.0000 1.0000 -0.0000
vt 0.535198 0.762383
vt 0.517599 0.744784
vt 0.535198 0.744784
vt 0.517599 0.762383
vt 0.500000 0.744784
vt 0.500000 0.762383
vt 0.482401 0.744784
vt 0.482401 0.762383
vt 0.464802 0.744784
vt 0.482401 0.727185
vt 0.500000 0.727185
vt 0.500000 0.779982
vt 0.464802 0.762383
vt 0.482401 0.779982
s 0
f 82/151/61 83/152/61 81/153/61
f 84/154/62 87/155/62 83/152/62
f 88/156/63 85/157/63 87/155/63
f 86/158/64 81/159/64 85/157/64
f 87/155/65 81/160/65 83/161/65
f 84/162/66 86/158/66 88/156/66
f 82/151/61 84/154/61 83/152/61
f 84/154/62 88/156/62 87/155/62
f 88/156/63 86/158/63 85/157/63
f 86/158/64 82/163/64 81/159/64
f 87/155/65 85/157/65 81/160/65
f 84/162/66 82/164/66 86/158/66
